<mxfile host="app.diagrams.net" modified="2021-12-08T16:39:06.030Z" agent="5.0 (Windows NT 10.0; Win64; x64) AppleWebKit/537.36 (KHTML, like Gecko) Chrome/93.0.4577.82 Safari/537.36" etag="ExBNXnuHRsGq-kCK94QH" version="15.9.1" type="github">
  <diagram id="Yq_syqRDQ1-WDX5Zo3WL" name="第 1 页">
    <mxGraphModel dx="1422" dy="754" grid="1" gridSize="10" guides="1" tooltips="1" connect="1" arrows="1" fold="1" page="1" pageScale="1" pageWidth="827" pageHeight="1169" math="0" shadow="0">
      <root>
        <mxCell id="0" />
        <mxCell id="1" parent="0" />
        <mxCell id="8_u7qsNa2uZcS0IcBiX_-3" value="" style="edgeStyle=orthogonalEdgeStyle;rounded=0;orthogonalLoop=1;jettySize=auto;html=1;sketch=1;fillColor=#d5e8d4;gradientColor=#97d077;strokeColor=#82b366;" edge="1" parent="1" source="8_u7qsNa2uZcS0IcBiX_-1" target="8_u7qsNa2uZcS0IcBiX_-2">
          <mxGeometry relative="1" as="geometry" />
        </mxCell>
        <mxCell id="8_u7qsNa2uZcS0IcBiX_-1" value="1" style="rounded=0;whiteSpace=wrap;html=1;sketch=1;fillColor=#d5e8d4;gradientColor=#97d077;strokeColor=#82b366;" vertex="1" parent="1">
          <mxGeometry x="280" y="40" width="40" height="30" as="geometry" />
        </mxCell>
        <mxCell id="8_u7qsNa2uZcS0IcBiX_-5" value="" style="edgeStyle=orthogonalEdgeStyle;rounded=0;orthogonalLoop=1;jettySize=auto;html=1;sketch=1;fillColor=#d5e8d4;gradientColor=#97d077;strokeColor=#82b366;" edge="1" parent="1" source="8_u7qsNa2uZcS0IcBiX_-2" target="8_u7qsNa2uZcS0IcBiX_-4">
          <mxGeometry relative="1" as="geometry" />
        </mxCell>
        <mxCell id="8_u7qsNa2uZcS0IcBiX_-2" value="2" style="rounded=0;whiteSpace=wrap;html=1;sketch=1;fillColor=#d5e8d4;gradientColor=#97d077;strokeColor=#82b366;" vertex="1" parent="1">
          <mxGeometry x="360" y="40" width="40" height="30" as="geometry" />
        </mxCell>
        <mxCell id="8_u7qsNa2uZcS0IcBiX_-4" value="4" style="rounded=0;whiteSpace=wrap;html=1;sketch=1;fillColor=#d5e8d4;gradientColor=#97d077;strokeColor=#82b366;" vertex="1" parent="1">
          <mxGeometry x="440" y="40" width="40" height="30" as="geometry" />
        </mxCell>
        <mxCell id="8_u7qsNa2uZcS0IcBiX_-6" value="" style="edgeStyle=orthogonalEdgeStyle;rounded=0;orthogonalLoop=1;jettySize=auto;html=1;sketch=1;fillColor=#d5e8d4;gradientColor=#97d077;strokeColor=#82b366;" edge="1" parent="1" source="8_u7qsNa2uZcS0IcBiX_-7" target="8_u7qsNa2uZcS0IcBiX_-9">
          <mxGeometry relative="1" as="geometry" />
        </mxCell>
        <mxCell id="8_u7qsNa2uZcS0IcBiX_-7" value="1" style="rounded=0;whiteSpace=wrap;html=1;sketch=1;fillColor=#fff2cc;gradientColor=#ffd966;strokeColor=#d6b656;" vertex="1" parent="1">
          <mxGeometry x="280" y="120" width="40" height="30" as="geometry" />
        </mxCell>
        <mxCell id="8_u7qsNa2uZcS0IcBiX_-8" value="" style="edgeStyle=orthogonalEdgeStyle;rounded=0;orthogonalLoop=1;jettySize=auto;html=1;sketch=1;fillColor=#d5e8d4;gradientColor=#97d077;strokeColor=#82b366;" edge="1" parent="1" source="8_u7qsNa2uZcS0IcBiX_-9" target="8_u7qsNa2uZcS0IcBiX_-10">
          <mxGeometry relative="1" as="geometry" />
        </mxCell>
        <mxCell id="8_u7qsNa2uZcS0IcBiX_-9" value="3" style="rounded=0;whiteSpace=wrap;html=1;sketch=1;fillColor=#fff2cc;gradientColor=#ffd966;strokeColor=#d6b656;" vertex="1" parent="1">
          <mxGeometry x="360" y="120" width="40" height="30" as="geometry" />
        </mxCell>
        <mxCell id="8_u7qsNa2uZcS0IcBiX_-10" value="4" style="rounded=0;whiteSpace=wrap;html=1;sketch=1;fillColor=#fff2cc;gradientColor=#ffd966;strokeColor=#d6b656;" vertex="1" parent="1">
          <mxGeometry x="440" y="120" width="40" height="30" as="geometry" />
        </mxCell>
        <mxCell id="8_u7qsNa2uZcS0IcBiX_-11" value="&lt;i&gt;&lt;font face=&quot;Comic Sans MS&quot; style=&quot;font-size: 18px&quot;&gt;L1&lt;/font&gt;&lt;/i&gt;" style="text;html=1;strokeColor=none;fillColor=none;align=center;verticalAlign=middle;whiteSpace=wrap;rounded=0;" vertex="1" parent="1">
          <mxGeometry x="200" y="40" width="60" height="30" as="geometry" />
        </mxCell>
        <mxCell id="8_u7qsNa2uZcS0IcBiX_-12" value="&lt;i&gt;&lt;font face=&quot;Comic Sans MS&quot; style=&quot;font-size: 18px&quot;&gt;L2&lt;/font&gt;&lt;/i&gt;" style="text;html=1;strokeColor=none;fillColor=none;align=center;verticalAlign=middle;whiteSpace=wrap;rounded=0;" vertex="1" parent="1">
          <mxGeometry x="200" y="120" width="60" height="30" as="geometry" />
        </mxCell>
        <mxCell id="8_u7qsNa2uZcS0IcBiX_-24" value="" style="edgeStyle=orthogonalEdgeStyle;rounded=0;sketch=1;orthogonalLoop=1;jettySize=auto;html=1;fontFamily=Comic Sans MS;fontSize=18;" edge="1" parent="1" source="8_u7qsNa2uZcS0IcBiX_-13" target="8_u7qsNa2uZcS0IcBiX_-15">
          <mxGeometry relative="1" as="geometry" />
        </mxCell>
        <mxCell id="8_u7qsNa2uZcS0IcBiX_-13" value="dummy" style="rounded=0;whiteSpace=wrap;html=1;sketch=1;fillColor=#dae8fc;gradientColor=#7ea6e0;strokeColor=#6c8ebf;" vertex="1" parent="1">
          <mxGeometry x="120" y="240" width="40" height="30" as="geometry" />
        </mxCell>
        <mxCell id="8_u7qsNa2uZcS0IcBiX_-14" value="" style="edgeStyle=orthogonalEdgeStyle;rounded=0;orthogonalLoop=1;jettySize=auto;html=1;sketch=1;fillColor=#d5e8d4;gradientColor=#97d077;strokeColor=#82b366;" edge="1" parent="1" source="8_u7qsNa2uZcS0IcBiX_-15" target="8_u7qsNa2uZcS0IcBiX_-17">
          <mxGeometry relative="1" as="geometry" />
        </mxCell>
        <mxCell id="8_u7qsNa2uZcS0IcBiX_-15" value="1" style="rounded=0;whiteSpace=wrap;html=1;sketch=1;fillColor=#dae8fc;gradientColor=#7ea6e0;strokeColor=#6c8ebf;" vertex="1" parent="1">
          <mxGeometry x="200" y="240" width="40" height="30" as="geometry" />
        </mxCell>
        <mxCell id="8_u7qsNa2uZcS0IcBiX_-16" value="" style="edgeStyle=orthogonalEdgeStyle;rounded=0;orthogonalLoop=1;jettySize=auto;html=1;sketch=1;fillColor=#d5e8d4;gradientColor=#97d077;strokeColor=#82b366;" edge="1" parent="1" source="8_u7qsNa2uZcS0IcBiX_-17" target="8_u7qsNa2uZcS0IcBiX_-18">
          <mxGeometry relative="1" as="geometry" />
        </mxCell>
        <mxCell id="8_u7qsNa2uZcS0IcBiX_-17" value="2" style="rounded=0;whiteSpace=wrap;html=1;sketch=1;fillColor=#d5e8d4;gradientColor=#97d077;strokeColor=#82b366;" vertex="1" parent="1">
          <mxGeometry x="280" y="200" width="40" height="30" as="geometry" />
        </mxCell>
        <mxCell id="8_u7qsNa2uZcS0IcBiX_-18" value="4" style="rounded=0;whiteSpace=wrap;html=1;sketch=1;fillColor=#d5e8d4;gradientColor=#97d077;strokeColor=#82b366;" vertex="1" parent="1">
          <mxGeometry x="360" y="200" width="40" height="30" as="geometry" />
        </mxCell>
        <mxCell id="8_u7qsNa2uZcS0IcBiX_-19" value="" style="edgeStyle=orthogonalEdgeStyle;rounded=0;orthogonalLoop=1;jettySize=auto;html=1;sketch=1;fillColor=#d5e8d4;gradientColor=#97d077;strokeColor=#82b366;" edge="1" parent="1" source="8_u7qsNa2uZcS0IcBiX_-20" target="8_u7qsNa2uZcS0IcBiX_-22">
          <mxGeometry relative="1" as="geometry" />
        </mxCell>
        <mxCell id="8_u7qsNa2uZcS0IcBiX_-20" value="1" style="rounded=0;whiteSpace=wrap;html=1;sketch=1;fillColor=#fff2cc;gradientColor=#ffd966;strokeColor=#d6b656;" vertex="1" parent="1">
          <mxGeometry x="280" y="290" width="40" height="30" as="geometry" />
        </mxCell>
        <mxCell id="8_u7qsNa2uZcS0IcBiX_-21" value="" style="edgeStyle=orthogonalEdgeStyle;rounded=0;orthogonalLoop=1;jettySize=auto;html=1;sketch=1;fillColor=#d5e8d4;gradientColor=#97d077;strokeColor=#82b366;" edge="1" parent="1" source="8_u7qsNa2uZcS0IcBiX_-22" target="8_u7qsNa2uZcS0IcBiX_-23">
          <mxGeometry relative="1" as="geometry" />
        </mxCell>
        <mxCell id="8_u7qsNa2uZcS0IcBiX_-22" value="3" style="rounded=0;whiteSpace=wrap;html=1;sketch=1;fillColor=#fff2cc;gradientColor=#ffd966;strokeColor=#d6b656;" vertex="1" parent="1">
          <mxGeometry x="360" y="290" width="40" height="30" as="geometry" />
        </mxCell>
        <mxCell id="8_u7qsNa2uZcS0IcBiX_-23" value="4" style="rounded=0;whiteSpace=wrap;html=1;sketch=1;fillColor=#fff2cc;gradientColor=#ffd966;strokeColor=#d6b656;" vertex="1" parent="1">
          <mxGeometry x="440" y="290" width="40" height="30" as="geometry" />
        </mxCell>
        <mxCell id="8_u7qsNa2uZcS0IcBiX_-40" value="" style="edgeStyle=orthogonalEdgeStyle;rounded=0;sketch=1;orthogonalLoop=1;jettySize=auto;html=1;fontFamily=Comic Sans MS;fontSize=18;" edge="1" parent="1" source="8_u7qsNa2uZcS0IcBiX_-41" target="8_u7qsNa2uZcS0IcBiX_-43">
          <mxGeometry relative="1" as="geometry" />
        </mxCell>
        <mxCell id="8_u7qsNa2uZcS0IcBiX_-41" value="dummy" style="rounded=0;whiteSpace=wrap;html=1;sketch=1;fillColor=#dae8fc;gradientColor=#7ea6e0;strokeColor=#6c8ebf;" vertex="1" parent="1">
          <mxGeometry x="120" y="440" width="40" height="30" as="geometry" />
        </mxCell>
        <mxCell id="8_u7qsNa2uZcS0IcBiX_-52" value="" style="edgeStyle=orthogonalEdgeStyle;rounded=0;sketch=1;orthogonalLoop=1;jettySize=auto;html=1;fontFamily=Comic Sans MS;fontSize=18;" edge="1" parent="1" source="8_u7qsNa2uZcS0IcBiX_-43" target="8_u7qsNa2uZcS0IcBiX_-48">
          <mxGeometry relative="1" as="geometry" />
        </mxCell>
        <mxCell id="8_u7qsNa2uZcS0IcBiX_-43" value="1" style="rounded=0;whiteSpace=wrap;html=1;sketch=1;fillColor=#dae8fc;gradientColor=#7ea6e0;strokeColor=#6c8ebf;" vertex="1" parent="1">
          <mxGeometry x="200" y="440" width="40" height="30" as="geometry" />
        </mxCell>
        <mxCell id="8_u7qsNa2uZcS0IcBiX_-44" value="" style="edgeStyle=orthogonalEdgeStyle;rounded=0;orthogonalLoop=1;jettySize=auto;html=1;sketch=1;fillColor=#d5e8d4;gradientColor=#97d077;strokeColor=#82b366;" edge="1" parent="1" source="8_u7qsNa2uZcS0IcBiX_-45" target="8_u7qsNa2uZcS0IcBiX_-46">
          <mxGeometry relative="1" as="geometry" />
        </mxCell>
        <mxCell id="8_u7qsNa2uZcS0IcBiX_-45" value="2" style="rounded=0;whiteSpace=wrap;html=1;sketch=1;fillColor=#d5e8d4;gradientColor=#97d077;strokeColor=#82b366;" vertex="1" parent="1">
          <mxGeometry x="360" y="400" width="40" height="30" as="geometry" />
        </mxCell>
        <mxCell id="8_u7qsNa2uZcS0IcBiX_-46" value="4" style="rounded=0;whiteSpace=wrap;html=1;sketch=1;fillColor=#d5e8d4;gradientColor=#97d077;strokeColor=#82b366;" vertex="1" parent="1">
          <mxGeometry x="440" y="400" width="40" height="30" as="geometry" />
        </mxCell>
        <mxCell id="8_u7qsNa2uZcS0IcBiX_-47" value="" style="edgeStyle=orthogonalEdgeStyle;rounded=0;orthogonalLoop=1;jettySize=auto;html=1;sketch=1;fillColor=#d5e8d4;gradientColor=#97d077;strokeColor=#82b366;entryX=0;entryY=0.5;entryDx=0;entryDy=0;" edge="1" parent="1" source="8_u7qsNa2uZcS0IcBiX_-48" target="8_u7qsNa2uZcS0IcBiX_-50">
          <mxGeometry relative="1" as="geometry" />
        </mxCell>
        <mxCell id="8_u7qsNa2uZcS0IcBiX_-48" value="1" style="rounded=0;whiteSpace=wrap;html=1;sketch=1;fillColor=#dae8fc;gradientColor=#7ea6e0;strokeColor=#6c8ebf;" vertex="1" parent="1">
          <mxGeometry x="280" y="440" width="40" height="30" as="geometry" />
        </mxCell>
        <mxCell id="8_u7qsNa2uZcS0IcBiX_-49" value="" style="edgeStyle=orthogonalEdgeStyle;rounded=0;orthogonalLoop=1;jettySize=auto;html=1;sketch=1;fillColor=#d5e8d4;gradientColor=#97d077;strokeColor=#82b366;" edge="1" parent="1" source="8_u7qsNa2uZcS0IcBiX_-50" target="8_u7qsNa2uZcS0IcBiX_-51">
          <mxGeometry relative="1" as="geometry" />
        </mxCell>
        <mxCell id="8_u7qsNa2uZcS0IcBiX_-50" value="3" style="rounded=0;whiteSpace=wrap;html=1;sketch=1;fillColor=#fff2cc;gradientColor=#ffd966;strokeColor=#d6b656;" vertex="1" parent="1">
          <mxGeometry x="360" y="490" width="40" height="30" as="geometry" />
        </mxCell>
        <mxCell id="8_u7qsNa2uZcS0IcBiX_-51" value="4" style="rounded=0;whiteSpace=wrap;html=1;sketch=1;fillColor=#fff2cc;gradientColor=#ffd966;strokeColor=#d6b656;" vertex="1" parent="1">
          <mxGeometry x="440" y="490" width="40" height="30" as="geometry" />
        </mxCell>
        <mxCell id="8_u7qsNa2uZcS0IcBiX_-53" value="" style="edgeStyle=orthogonalEdgeStyle;rounded=0;sketch=1;orthogonalLoop=1;jettySize=auto;html=1;fontFamily=Comic Sans MS;fontSize=18;" edge="1" parent="1" source="8_u7qsNa2uZcS0IcBiX_-54" target="8_u7qsNa2uZcS0IcBiX_-56">
          <mxGeometry relative="1" as="geometry" />
        </mxCell>
        <mxCell id="8_u7qsNa2uZcS0IcBiX_-54" value="dummy" style="rounded=0;whiteSpace=wrap;html=1;sketch=1;fillColor=#dae8fc;gradientColor=#7ea6e0;strokeColor=#6c8ebf;" vertex="1" parent="1">
          <mxGeometry x="120" y="640" width="40" height="30" as="geometry" />
        </mxCell>
        <mxCell id="8_u7qsNa2uZcS0IcBiX_-55" value="" style="edgeStyle=orthogonalEdgeStyle;rounded=0;sketch=1;orthogonalLoop=1;jettySize=auto;html=1;fontFamily=Comic Sans MS;fontSize=18;" edge="1" parent="1" source="8_u7qsNa2uZcS0IcBiX_-56" target="8_u7qsNa2uZcS0IcBiX_-61">
          <mxGeometry relative="1" as="geometry" />
        </mxCell>
        <mxCell id="8_u7qsNa2uZcS0IcBiX_-56" value="1" style="rounded=0;whiteSpace=wrap;html=1;sketch=1;fillColor=#dae8fc;gradientColor=#7ea6e0;strokeColor=#6c8ebf;" vertex="1" parent="1">
          <mxGeometry x="200" y="640" width="40" height="30" as="geometry" />
        </mxCell>
        <mxCell id="8_u7qsNa2uZcS0IcBiX_-57" value="" style="edgeStyle=orthogonalEdgeStyle;rounded=0;orthogonalLoop=1;jettySize=auto;html=1;sketch=1;fillColor=#d5e8d4;gradientColor=#97d077;strokeColor=#82b366;" edge="1" parent="1" source="8_u7qsNa2uZcS0IcBiX_-58" target="8_u7qsNa2uZcS0IcBiX_-59">
          <mxGeometry relative="1" as="geometry" />
        </mxCell>
        <mxCell id="8_u7qsNa2uZcS0IcBiX_-58" value="2" style="rounded=0;whiteSpace=wrap;html=1;sketch=1;fillColor=#dae8fc;gradientColor=#7ea6e0;strokeColor=#6c8ebf;" vertex="1" parent="1">
          <mxGeometry x="360" y="640" width="40" height="30" as="geometry" />
        </mxCell>
        <mxCell id="8_u7qsNa2uZcS0IcBiX_-59" value="4" style="rounded=0;whiteSpace=wrap;html=1;sketch=1;fillColor=#d5e8d4;gradientColor=#97d077;strokeColor=#82b366;" vertex="1" parent="1">
          <mxGeometry x="440" y="600" width="40" height="30" as="geometry" />
        </mxCell>
        <mxCell id="8_u7qsNa2uZcS0IcBiX_-65" style="edgeStyle=orthogonalEdgeStyle;rounded=0;sketch=1;orthogonalLoop=1;jettySize=auto;html=1;exitX=1;exitY=0.5;exitDx=0;exitDy=0;entryX=0;entryY=0.5;entryDx=0;entryDy=0;fontFamily=Comic Sans MS;fontSize=18;" edge="1" parent="1" source="8_u7qsNa2uZcS0IcBiX_-61" target="8_u7qsNa2uZcS0IcBiX_-58">
          <mxGeometry relative="1" as="geometry" />
        </mxCell>
        <mxCell id="8_u7qsNa2uZcS0IcBiX_-61" value="1" style="rounded=0;whiteSpace=wrap;html=1;sketch=1;fillColor=#dae8fc;gradientColor=#7ea6e0;strokeColor=#6c8ebf;" vertex="1" parent="1">
          <mxGeometry x="280" y="640" width="40" height="30" as="geometry" />
        </mxCell>
        <mxCell id="8_u7qsNa2uZcS0IcBiX_-62" value="" style="edgeStyle=orthogonalEdgeStyle;rounded=0;orthogonalLoop=1;jettySize=auto;html=1;sketch=1;fillColor=#d5e8d4;gradientColor=#97d077;strokeColor=#82b366;" edge="1" parent="1" source="8_u7qsNa2uZcS0IcBiX_-63" target="8_u7qsNa2uZcS0IcBiX_-64">
          <mxGeometry relative="1" as="geometry" />
        </mxCell>
        <mxCell id="8_u7qsNa2uZcS0IcBiX_-63" value="3" style="rounded=0;whiteSpace=wrap;html=1;sketch=1;fillColor=#fff2cc;gradientColor=#ffd966;strokeColor=#d6b656;" vertex="1" parent="1">
          <mxGeometry x="440" y="690" width="40" height="30" as="geometry" />
        </mxCell>
        <mxCell id="8_u7qsNa2uZcS0IcBiX_-64" value="4" style="rounded=0;whiteSpace=wrap;html=1;sketch=1;fillColor=#fff2cc;gradientColor=#ffd966;strokeColor=#d6b656;" vertex="1" parent="1">
          <mxGeometry x="520" y="690" width="40" height="30" as="geometry" />
        </mxCell>
        <mxCell id="8_u7qsNa2uZcS0IcBiX_-66" value="" style="edgeStyle=orthogonalEdgeStyle;rounded=0;sketch=1;orthogonalLoop=1;jettySize=auto;html=1;fontFamily=Comic Sans MS;fontSize=18;" edge="1" parent="1" source="8_u7qsNa2uZcS0IcBiX_-67" target="8_u7qsNa2uZcS0IcBiX_-69">
          <mxGeometry relative="1" as="geometry" />
        </mxCell>
        <mxCell id="8_u7qsNa2uZcS0IcBiX_-67" value="dummy" style="rounded=0;whiteSpace=wrap;html=1;sketch=1;fillColor=#dae8fc;gradientColor=#7ea6e0;strokeColor=#6c8ebf;" vertex="1" parent="1">
          <mxGeometry x="120" y="810" width="40" height="30" as="geometry" />
        </mxCell>
        <mxCell id="8_u7qsNa2uZcS0IcBiX_-68" value="" style="edgeStyle=orthogonalEdgeStyle;rounded=0;sketch=1;orthogonalLoop=1;jettySize=auto;html=1;fontFamily=Comic Sans MS;fontSize=18;" edge="1" parent="1" source="8_u7qsNa2uZcS0IcBiX_-69" target="8_u7qsNa2uZcS0IcBiX_-74">
          <mxGeometry relative="1" as="geometry" />
        </mxCell>
        <mxCell id="8_u7qsNa2uZcS0IcBiX_-69" value="1" style="rounded=0;whiteSpace=wrap;html=1;sketch=1;fillColor=#dae8fc;gradientColor=#7ea6e0;strokeColor=#6c8ebf;" vertex="1" parent="1">
          <mxGeometry x="200" y="810" width="40" height="30" as="geometry" />
        </mxCell>
        <mxCell id="8_u7qsNa2uZcS0IcBiX_-79" style="edgeStyle=orthogonalEdgeStyle;rounded=0;sketch=1;orthogonalLoop=1;jettySize=auto;html=1;exitX=1;exitY=0.5;exitDx=0;exitDy=0;entryX=0;entryY=0.5;entryDx=0;entryDy=0;fontFamily=Comic Sans MS;fontSize=18;" edge="1" parent="1" source="8_u7qsNa2uZcS0IcBiX_-71" target="8_u7qsNa2uZcS0IcBiX_-76">
          <mxGeometry relative="1" as="geometry" />
        </mxCell>
        <mxCell id="8_u7qsNa2uZcS0IcBiX_-71" value="2" style="rounded=0;whiteSpace=wrap;html=1;sketch=1;fillColor=#dae8fc;gradientColor=#7ea6e0;strokeColor=#6c8ebf;" vertex="1" parent="1">
          <mxGeometry x="360" y="810" width="40" height="30" as="geometry" />
        </mxCell>
        <mxCell id="8_u7qsNa2uZcS0IcBiX_-72" value="4" style="rounded=0;whiteSpace=wrap;html=1;sketch=1;fillColor=#d5e8d4;gradientColor=#97d077;strokeColor=#82b366;" vertex="1" parent="1">
          <mxGeometry x="520" y="770" width="40" height="30" as="geometry" />
        </mxCell>
        <mxCell id="8_u7qsNa2uZcS0IcBiX_-73" style="edgeStyle=orthogonalEdgeStyle;rounded=0;sketch=1;orthogonalLoop=1;jettySize=auto;html=1;exitX=1;exitY=0.5;exitDx=0;exitDy=0;entryX=0;entryY=0.5;entryDx=0;entryDy=0;fontFamily=Comic Sans MS;fontSize=18;" edge="1" parent="1" source="8_u7qsNa2uZcS0IcBiX_-74" target="8_u7qsNa2uZcS0IcBiX_-71">
          <mxGeometry relative="1" as="geometry" />
        </mxCell>
        <mxCell id="8_u7qsNa2uZcS0IcBiX_-74" value="1" style="rounded=0;whiteSpace=wrap;html=1;sketch=1;fillColor=#dae8fc;gradientColor=#7ea6e0;strokeColor=#6c8ebf;" vertex="1" parent="1">
          <mxGeometry x="280" y="810" width="40" height="30" as="geometry" />
        </mxCell>
        <mxCell id="8_u7qsNa2uZcS0IcBiX_-75" value="" style="edgeStyle=orthogonalEdgeStyle;rounded=0;orthogonalLoop=1;jettySize=auto;html=1;sketch=1;fillColor=#d5e8d4;gradientColor=#97d077;strokeColor=#82b366;" edge="1" parent="1" source="8_u7qsNa2uZcS0IcBiX_-76" target="8_u7qsNa2uZcS0IcBiX_-77">
          <mxGeometry relative="1" as="geometry" />
        </mxCell>
        <mxCell id="8_u7qsNa2uZcS0IcBiX_-77" value="4" style="rounded=0;whiteSpace=wrap;html=1;sketch=1;fillColor=#fff2cc;gradientColor=#ffd966;strokeColor=#d6b656;" vertex="1" parent="1">
          <mxGeometry x="520" y="860" width="40" height="30" as="geometry" />
        </mxCell>
        <mxCell id="8_u7qsNa2uZcS0IcBiX_-76" value="3" style="rounded=0;whiteSpace=wrap;html=1;sketch=1;fillColor=#dae8fc;gradientColor=#7ea6e0;strokeColor=#6c8ebf;" vertex="1" parent="1">
          <mxGeometry x="440" y="810" width="40" height="30" as="geometry" />
        </mxCell>
        <mxCell id="8_u7qsNa2uZcS0IcBiX_-80" value="" style="edgeStyle=orthogonalEdgeStyle;rounded=0;sketch=1;orthogonalLoop=1;jettySize=auto;html=1;fontFamily=Comic Sans MS;fontSize=18;" edge="1" parent="1" source="8_u7qsNa2uZcS0IcBiX_-81" target="8_u7qsNa2uZcS0IcBiX_-83">
          <mxGeometry relative="1" as="geometry" />
        </mxCell>
        <mxCell id="8_u7qsNa2uZcS0IcBiX_-81" value="dummy" style="rounded=0;whiteSpace=wrap;html=1;sketch=1;fillColor=#dae8fc;gradientColor=#7ea6e0;strokeColor=#6c8ebf;" vertex="1" parent="1">
          <mxGeometry x="120" y="1000" width="40" height="30" as="geometry" />
        </mxCell>
        <mxCell id="8_u7qsNa2uZcS0IcBiX_-82" value="" style="edgeStyle=orthogonalEdgeStyle;rounded=0;sketch=1;orthogonalLoop=1;jettySize=auto;html=1;fontFamily=Comic Sans MS;fontSize=18;" edge="1" parent="1" source="8_u7qsNa2uZcS0IcBiX_-83" target="8_u7qsNa2uZcS0IcBiX_-88">
          <mxGeometry relative="1" as="geometry" />
        </mxCell>
        <mxCell id="8_u7qsNa2uZcS0IcBiX_-83" value="1" style="rounded=0;whiteSpace=wrap;html=1;sketch=1;fillColor=#dae8fc;gradientColor=#7ea6e0;strokeColor=#6c8ebf;" vertex="1" parent="1">
          <mxGeometry x="200" y="1000" width="40" height="30" as="geometry" />
        </mxCell>
        <mxCell id="8_u7qsNa2uZcS0IcBiX_-84" style="edgeStyle=orthogonalEdgeStyle;rounded=0;sketch=1;orthogonalLoop=1;jettySize=auto;html=1;exitX=1;exitY=0.5;exitDx=0;exitDy=0;entryX=0;entryY=0.5;entryDx=0;entryDy=0;fontFamily=Comic Sans MS;fontSize=18;" edge="1" parent="1" source="8_u7qsNa2uZcS0IcBiX_-85" target="8_u7qsNa2uZcS0IcBiX_-91">
          <mxGeometry relative="1" as="geometry" />
        </mxCell>
        <mxCell id="8_u7qsNa2uZcS0IcBiX_-85" value="2" style="rounded=0;whiteSpace=wrap;html=1;sketch=1;fillColor=#dae8fc;gradientColor=#7ea6e0;strokeColor=#6c8ebf;" vertex="1" parent="1">
          <mxGeometry x="360" y="1000" width="40" height="30" as="geometry" />
        </mxCell>
        <mxCell id="8_u7qsNa2uZcS0IcBiX_-87" style="edgeStyle=orthogonalEdgeStyle;rounded=0;sketch=1;orthogonalLoop=1;jettySize=auto;html=1;exitX=1;exitY=0.5;exitDx=0;exitDy=0;entryX=0;entryY=0.5;entryDx=0;entryDy=0;fontFamily=Comic Sans MS;fontSize=18;" edge="1" parent="1" source="8_u7qsNa2uZcS0IcBiX_-88" target="8_u7qsNa2uZcS0IcBiX_-85">
          <mxGeometry relative="1" as="geometry" />
        </mxCell>
        <mxCell id="8_u7qsNa2uZcS0IcBiX_-88" value="1" style="rounded=0;whiteSpace=wrap;html=1;sketch=1;fillColor=#dae8fc;gradientColor=#7ea6e0;strokeColor=#6c8ebf;" vertex="1" parent="1">
          <mxGeometry x="280" y="1000" width="40" height="30" as="geometry" />
        </mxCell>
        <mxCell id="8_u7qsNa2uZcS0IcBiX_-90" value="4" style="rounded=0;whiteSpace=wrap;html=1;sketch=1;fillColor=#fff2cc;gradientColor=#ffd966;strokeColor=#d6b656;" vertex="1" parent="1">
          <mxGeometry x="520" y="1050" width="40" height="30" as="geometry" />
        </mxCell>
        <mxCell id="8_u7qsNa2uZcS0IcBiX_-93" style="edgeStyle=orthogonalEdgeStyle;rounded=0;sketch=1;orthogonalLoop=1;jettySize=auto;html=1;exitX=1;exitY=0.5;exitDx=0;exitDy=0;entryX=0;entryY=0.5;entryDx=0;entryDy=0;fontFamily=Comic Sans MS;fontSize=18;" edge="1" parent="1" source="8_u7qsNa2uZcS0IcBiX_-91" target="8_u7qsNa2uZcS0IcBiX_-86">
          <mxGeometry relative="1" as="geometry" />
        </mxCell>
        <mxCell id="8_u7qsNa2uZcS0IcBiX_-91" value="3" style="rounded=0;whiteSpace=wrap;html=1;sketch=1;fillColor=#dae8fc;gradientColor=#7ea6e0;strokeColor=#6c8ebf;" vertex="1" parent="1">
          <mxGeometry x="440" y="1000" width="40" height="30" as="geometry" />
        </mxCell>
        <mxCell id="8_u7qsNa2uZcS0IcBiX_-86" value="4" style="rounded=0;whiteSpace=wrap;html=1;sketch=1;fillColor=#dae8fc;gradientColor=#7ea6e0;strokeColor=#6c8ebf;" vertex="1" parent="1">
          <mxGeometry x="520" y="1000" width="40" height="30" as="geometry" />
        </mxCell>
        <mxCell id="8_u7qsNa2uZcS0IcBiX_-94" value="" style="edgeStyle=orthogonalEdgeStyle;rounded=0;sketch=1;orthogonalLoop=1;jettySize=auto;html=1;fontFamily=Comic Sans MS;fontSize=18;" edge="1" parent="1" source="8_u7qsNa2uZcS0IcBiX_-95" target="8_u7qsNa2uZcS0IcBiX_-97">
          <mxGeometry relative="1" as="geometry" />
        </mxCell>
        <mxCell id="8_u7qsNa2uZcS0IcBiX_-95" value="dummy" style="rounded=0;whiteSpace=wrap;html=1;sketch=1;fillColor=#dae8fc;gradientColor=#7ea6e0;strokeColor=#6c8ebf;" vertex="1" parent="1">
          <mxGeometry x="120" y="1160" width="40" height="30" as="geometry" />
        </mxCell>
        <mxCell id="8_u7qsNa2uZcS0IcBiX_-96" value="" style="edgeStyle=orthogonalEdgeStyle;rounded=0;sketch=1;orthogonalLoop=1;jettySize=auto;html=1;fontFamily=Comic Sans MS;fontSize=18;" edge="1" parent="1" source="8_u7qsNa2uZcS0IcBiX_-97" target="8_u7qsNa2uZcS0IcBiX_-101">
          <mxGeometry relative="1" as="geometry" />
        </mxCell>
        <mxCell id="8_u7qsNa2uZcS0IcBiX_-97" value="1" style="rounded=0;whiteSpace=wrap;html=1;sketch=1;fillColor=#dae8fc;gradientColor=#7ea6e0;strokeColor=#6c8ebf;" vertex="1" parent="1">
          <mxGeometry x="200" y="1160" width="40" height="30" as="geometry" />
        </mxCell>
        <mxCell id="8_u7qsNa2uZcS0IcBiX_-98" style="edgeStyle=orthogonalEdgeStyle;rounded=0;sketch=1;orthogonalLoop=1;jettySize=auto;html=1;exitX=1;exitY=0.5;exitDx=0;exitDy=0;entryX=0;entryY=0.5;entryDx=0;entryDy=0;fontFamily=Comic Sans MS;fontSize=18;" edge="1" parent="1" source="8_u7qsNa2uZcS0IcBiX_-99" target="8_u7qsNa2uZcS0IcBiX_-104">
          <mxGeometry relative="1" as="geometry" />
        </mxCell>
        <mxCell id="8_u7qsNa2uZcS0IcBiX_-99" value="2" style="rounded=0;whiteSpace=wrap;html=1;sketch=1;fillColor=#dae8fc;gradientColor=#7ea6e0;strokeColor=#6c8ebf;" vertex="1" parent="1">
          <mxGeometry x="360" y="1160" width="40" height="30" as="geometry" />
        </mxCell>
        <mxCell id="8_u7qsNa2uZcS0IcBiX_-100" style="edgeStyle=orthogonalEdgeStyle;rounded=0;sketch=1;orthogonalLoop=1;jettySize=auto;html=1;exitX=1;exitY=0.5;exitDx=0;exitDy=0;entryX=0;entryY=0.5;entryDx=0;entryDy=0;fontFamily=Comic Sans MS;fontSize=18;" edge="1" parent="1" source="8_u7qsNa2uZcS0IcBiX_-101" target="8_u7qsNa2uZcS0IcBiX_-99">
          <mxGeometry relative="1" as="geometry" />
        </mxCell>
        <mxCell id="8_u7qsNa2uZcS0IcBiX_-101" value="1" style="rounded=0;whiteSpace=wrap;html=1;sketch=1;fillColor=#dae8fc;gradientColor=#7ea6e0;strokeColor=#6c8ebf;" vertex="1" parent="1">
          <mxGeometry x="280" y="1160" width="40" height="30" as="geometry" />
        </mxCell>
        <mxCell id="8_u7qsNa2uZcS0IcBiX_-102" value="4" style="rounded=0;whiteSpace=wrap;html=1;sketch=1;fillColor=#dae8fc;gradientColor=#7ea6e0;strokeColor=#6c8ebf;" vertex="1" parent="1">
          <mxGeometry x="600" y="1160" width="40" height="30" as="geometry" />
        </mxCell>
        <mxCell id="8_u7qsNa2uZcS0IcBiX_-103" style="edgeStyle=orthogonalEdgeStyle;rounded=0;sketch=1;orthogonalLoop=1;jettySize=auto;html=1;exitX=1;exitY=0.5;exitDx=0;exitDy=0;entryX=0;entryY=0.5;entryDx=0;entryDy=0;fontFamily=Comic Sans MS;fontSize=18;" edge="1" parent="1" source="8_u7qsNa2uZcS0IcBiX_-104" target="8_u7qsNa2uZcS0IcBiX_-105">
          <mxGeometry relative="1" as="geometry" />
        </mxCell>
        <mxCell id="8_u7qsNa2uZcS0IcBiX_-104" value="3" style="rounded=0;whiteSpace=wrap;html=1;sketch=1;fillColor=#dae8fc;gradientColor=#7ea6e0;strokeColor=#6c8ebf;" vertex="1" parent="1">
          <mxGeometry x="440" y="1160" width="40" height="30" as="geometry" />
        </mxCell>
        <mxCell id="8_u7qsNa2uZcS0IcBiX_-106" style="edgeStyle=orthogonalEdgeStyle;rounded=0;sketch=1;orthogonalLoop=1;jettySize=auto;html=1;exitX=1;exitY=0.5;exitDx=0;exitDy=0;entryX=0;entryY=0.5;entryDx=0;entryDy=0;fontFamily=Comic Sans MS;fontSize=18;" edge="1" parent="1" source="8_u7qsNa2uZcS0IcBiX_-105" target="8_u7qsNa2uZcS0IcBiX_-102">
          <mxGeometry relative="1" as="geometry" />
        </mxCell>
        <mxCell id="8_u7qsNa2uZcS0IcBiX_-105" value="4" style="rounded=0;whiteSpace=wrap;html=1;sketch=1;fillColor=#dae8fc;gradientColor=#7ea6e0;strokeColor=#6c8ebf;" vertex="1" parent="1">
          <mxGeometry x="520" y="1160" width="40" height="30" as="geometry" />
        </mxCell>
      </root>
    </mxGraphModel>
  </diagram>
</mxfile>
